<svg xmlns="http://www.w3.org/2000/svg"  viewBox="0 0 64 64" width="64px" height="64px"><path d="M 12 2 C 11.449 2 11 2.449 11 3 L 11 5 C 11 5.551 11.449 6 12 6 C 12.551 6 13 5.551 13 5 L 13 3 C 13 2.449 12.551 2 12 2 z M 17 2 C 16.449 2 16 2.449 16 3 L 16 5 C 16 5.551 16.449 6 17 6 C 17.551 6 18 5.551 18 5 L 18 3 C 18 2.449 17.551 2 17 2 z M 22 2 C 21.449 2 21 2.449 21 3 L 21 5 C 21 5.551 21.449 6 22 6 C 22.551 6 23 5.551 23 5 L 23 3 C 23 2.449 22.551 2 22 2 z M 27 2 C 26.449 2 26 2.449 26 3 L 26 5 C 26 5.551 26.449 6 27 6 C 27.551 6 28 5.551 28 5 L 28 3 C 28 2.449 27.551 2 27 2 z M 32 2 C 31.449 2 31 2.449 31 3 L 31 5 C 31 5.551 31.449 6 32 6 C 32.551 6 33 5.551 33 5 L 33 3 C 33 2.449 32.551 2 32 2 z M 37 2 C 36.449 2 36 2.449 36 3 L 36 5 C 36 5.551 36.449 6 37 6 C 37.551 6 38 5.551 38 5 L 38 3 C 38 2.449 37.551 2 37 2 z M 42 2 C 41.449 2 41 2.449 41 3 L 41 5 C 41 5.551 41.449 6 42 6 C 42.551 6 43 5.551 43 5 L 43 3 C 43 2.449 42.551 2 42 2 z M 47 2 C 46.449 2 46 2.449 46 3 L 46 5 C 46 5.551 46.449 6 47 6 C 47.551 6 48 5.551 48 5 L 48 3 C 48 2.449 47.551 2 47 2 z M 52 2 C 51.449 2 51 2.449 51 3 L 51 5 C 51 5.551 51.449 6 52 6 C 52.551 6 53 5.551 53 5 L 53 3 C 53 2.449 52.551 2 52 2 z M 13.216797 8.0390625 C 11.573397 8.0390625 10.225532 8.3292475 9.2890625 9.2421875 C 8.3526025 10.155128 8.0449219 11.494319 8.0449219 13.105469 L 8.0449219 48.949219 C 8.0449219 49.312999 8.05948 49.658894 8.09375 49.990234 L 8.09375 49.992188 C 8.15685 50.584767 8.22996 51.601157 9.03125 52.529297 C 9.14569 52.662797 9.1580225 52.658333 9.1953125 52.689453 C 9.2325925 52.720583 9.2694938 52.748807 9.3085938 52.779297 C 9.3867938 52.840267 9.4745069 52.906633 9.5605469 52.970703 C 9.7326269 53.098853 9.8945312 53.216797 9.8945312 53.216797 L 9.96875 53.269531 L 10.052734 53.308594 C 10.374744 53.462034 10.644274 53.600552 11.058594 53.763672 L 11.066406 53.767578 C 11.068706 53.768488 11.069866 53.768531 11.072266 53.769531 L 29.568359 61.322266 C 30.512084 61.742627 31.163155 61.988336 32.011719 61.974609 C 32.858828 61.98712 33.508929 61.742818 34.453125 61.322266 L 52.949219 53.769531 L 52.955078 53.767578 C 53.375028 53.602748 53.646133 53.463244 53.970703 53.308594 L 54.052734 53.269531 L 54.126953 53.216797 C 54.126953 53.216797 54.288858 53.098853 54.460938 52.970703 C 54.546977 52.906633 54.634691 52.840267 54.712891 52.779297 C 54.751991 52.748807 54.788892 52.720583 54.826172 52.689453 C 54.863452 52.658333 54.875794 52.662797 54.990234 52.529297 C 55.791524 51.601157 55.864634 50.584768 55.927734 49.992188 L 55.927734 49.990234 C 55.962084 49.659264 55.976563 49.312999 55.976562 48.949219 L 55.976562 13.105469 C 55.977043 11.494279 55.668812 10.155218 54.732422 9.2421875 C 53.796042 8.3291475 52.450041 8.0390625 50.806641 8.0390625 L 13.216797 8.0390625 z M 13.216797 10.039062 L 50.806641 10.039062 C 52.210241 10.039062 52.948818 10.296358 53.335938 10.673828 C 53.723058 11.051288 53.977022 11.746659 53.976562 13.105469 L 53.976562 48.949219 C 53.976562 49.257439 53.96315 49.536183 53.9375 49.783203 L 53.939453 49.78125 C 53.865853 50.4724 53.895675 50.716692 53.484375 51.201172 C 53.427195 51.245762 53.345085 51.308007 53.265625 51.367188 C 53.147315 51.455298 53.084573 51.501673 53.033203 51.539062 C 52.732963 51.683183 52.533363 51.785753 52.220703 51.908203 L 52.212891 51.910156 L 33.681641 59.476562 L 33.667969 59.482422 C 32.713549 59.908482 32.564633 59.988406 32.033203 59.978516 L 32.023438 59.978516 L 32.011719 59.978516 L 31.998047 59.978516 L 31.988281 59.978516 C 31.458341 59.989136 31.310419 59.908722 30.355469 59.482422 L 30.339844 59.476562 L 11.808594 51.910156 L 11.800781 51.908203 C 11.488101 51.785803 11.288521 51.683183 10.988281 51.539062 C 10.936911 51.501672 10.874169 51.455298 10.755859 51.367188 C 10.676399 51.308007 10.596242 51.245762 10.539062 51.201172 C 10.128282 50.717292 10.157194 50.472383 10.083984 49.783203 L 10.083984 49.78125 C 10.058374 49.53309 10.044922 49.256719 10.044922 48.949219 L 10.044922 13.105469 C 10.044922 11.746619 10.298257 11.051388 10.685547 10.673828 C 11.072837 10.296268 11.813197 10.039063 13.216797 10.039062 z M 42.638672 15.710938 C 40.165672 15.710938 38.943359 16.937828 38.943359 19.423828 L 38.943359 32.335938 C 38.943359 34.821937 40.165672 36.050781 42.638672 36.050781 L 44.146484 36.050781 C 46.620484 36.050781 47.841797 34.821937 47.841797 32.335938 L 47.841797 27.679688 L 44.857422 27.679688 L 44.857422 32.193359 C 44.857422 32.993359 44.487703 33.365234 43.720703 33.365234 L 43.150391 33.365234 C 42.354391 33.365234 41.984375 32.993359 41.984375 32.193359 L 41.984375 19.566406 C 41.984375 18.766406 42.354391 18.396484 43.150391 18.396484 L 43.662109 18.396484 C 44.430109 18.396484 44.800781 18.766406 44.800781 19.566406 L 44.800781 23.480469 L 47.785156 23.480469 L 47.785156 19.394531 C 47.785156 16.909531 46.590188 15.710938 44.117188 15.710938 L 42.638672 15.710938 z M 16.158203 15.880859 L 16.158203 35.878906 L 22.982422 35.878906 L 22.982422 33.107422 L 19.201172 33.107422 L 19.201172 27.080078 L 22.78125 27.080078 L 22.78125 24.308594 L 19.199219 24.308594 L 19.199219 18.652344 L 22.925781 18.652344 L 22.925781 15.880859 L 16.158203 15.880859 z M 24.449219 15.880859 L 24.449219 35.878906 L 27.492188 35.878906 L 27.492188 28.621094 L 29.226562 28.621094 C 31.699563 28.621094 32.921875 27.393203 32.921875 24.908203 L 32.921875 19.595703 C 32.921875 17.110703 31.699563 15.880859 29.226562 15.880859 L 24.449219 15.880859 z M 34.294922 15.880859 L 34.294922 35.878906 L 37.335938 35.878906 L 37.335938 15.880859 L 34.294922 15.880859 z M 27.492188 18.566406 L 28.742188 18.566406 C 29.510187 18.566406 29.880859 18.938281 29.880859 19.738281 L 29.880859 24.765625 C 29.880859 25.565625 29.510187 25.9375 28.742188 25.9375 L 27.492188 25.9375 L 27.492188 18.566406 z M 19.115234 40.638672 L 19.03125 40.646484 L 18.949219 40.654297 L 18.867188 40.662109 L 18.783203 40.671875 L 18.701172 40.6875 L 18.617188 40.695312 L 18.535156 40.712891 L 18.460938 40.738281 L 18.378906 40.755859 L 18.304688 40.779297 L 18.230469 40.796875 L 18.154297 40.830078 L 18.072266 40.855469 L 18.005859 40.880859 L 17.923828 40.921875 L 17.847656 40.955078 L 17.773438 40.988281 L 17.699219 41.029297 L 17.625 41.070312 L 17.550781 41.111328 L 17.484375 41.152344 L 17.419922 41.193359 L 17.353516 41.244141 L 17.287109 41.285156 L 17.220703 41.335938 L 17.162109 41.384766 L 17.097656 41.443359 L 17.039062 41.492188 L 16.980469 41.550781 L 16.923828 41.609375 L 16.873047 41.667969 L 16.814453 41.724609 L 16.765625 41.783203 L 16.716797 41.849609 L 16.666016 41.914062 L 16.617188 41.980469 L 16.574219 42.046875 L 16.533203 42.113281 L 16.492188 42.179688 L 16.451172 42.244141 L 16.410156 42.320312 L 16.376953 42.394531 L 16.34375 42.470703 L 16.310547 42.544922 L 16.277344 42.619141 L 16.244141 42.703125 L 16.220703 42.777344 L 16.195312 42.861328 L 16.171875 42.935547 L 16.154297 43.019531 L 16.128906 43.101562 L 16.111328 43.177734 L 16.103516 43.259766 L 16.087891 43.34375 L 16.078125 43.433594 L 16.070312 43.517578 L 16.070312 43.599609 L 16.0625 43.691406 L 16.0625 43.773438 L 16.0625 43.791016 L 16.0625 43.873047 L 16.0625 43.964844 L 16.070312 44.048828 L 16.078125 44.130859 L 16.087891 44.214844 L 16.095703 44.289062 L 16.111328 44.371094 L 16.119141 44.447266 L 16.136719 44.529297 L 16.162109 44.605469 L 16.179688 44.6875 L 16.203125 44.763672 L 16.220703 44.837891 L 16.253906 44.912109 L 16.277344 44.978516 L 16.310547 45.054688 L 16.34375 45.128906 L 16.376953 45.203125 L 16.410156 45.279297 L 16.451172 45.345703 L 16.492188 45.419922 L 16.533203 45.486328 L 16.574219 45.552734 L 16.623047 45.617188 L 16.666016 45.683594 L 16.716797 45.742188 L 16.765625 45.808594 L 16.814453 45.865234 L 16.873047 45.923828 L 16.931641 45.982422 L 16.988281 46.03125 L 17.046875 46.089844 L 17.105469 46.140625 L 17.162109 46.189453 L 17.228516 46.240234 L 17.294922 46.289062 L 17.361328 46.339844 L 17.427734 46.380859 L 17.492188 46.423828 L 17.566406 46.464844 L 17.632812 46.505859 L 17.707031 46.546875 L 17.78125 46.578125 L 17.855469 46.611328 L 17.931641 46.644531 L 18.013672 46.677734 L 18.087891 46.703125 L 18.160156 46.736328 L 18.236328 46.761719 L 18.318359 46.777344 L 18.392578 46.802734 L 18.476562 46.820312 L 18.550781 46.837891 L 18.632812 46.853516 L 18.716797 46.871094 L 18.798828 46.878906 L 18.882812 46.886719 L 18.964844 46.894531 L 19.054688 46.902344 L 19.136719 46.910156 L 19.220703 46.910156 L 19.310547 46.910156 L 19.402344 46.910156 L 19.492188 46.910156 L 19.583984 46.902344 L 19.667969 46.894531 L 19.757812 46.886719 L 19.841797 46.878906 L 19.931641 46.871094 L 20.015625 46.863281 L 20.097656 46.845703 L 20.181641 46.828125 L 20.255859 46.8125 L 20.337891 46.794922 L 20.412109 46.769531 L 20.494141 46.744141 L 20.568359 46.720703 L 20.644531 46.695312 L 20.71875 46.669922 L 20.792969 46.636719 L 20.875 46.603516 L 20.949219 46.570312 L 21.03125 46.537109 L 21.105469 46.496094 L 21.181641 46.462891 L 21.255859 46.421875 L 21.328125 46.380859 L 21.404297 46.339844 L 21.470703 46.296875 L 21.535156 46.255859 L 21.601562 46.205078 L 21.667969 46.164062 L 21.734375 46.115234 L 21.792969 46.072266 L 21.857422 46.023438 L 21.912109 45.970703 L 21.912109 45.888672 L 21.912109 45.804688 L 21.912109 45.722656 L 21.912109 45.646484 L 21.912109 45.564453 L 21.912109 45.480469 L 21.912109 45.398438 L 21.912109 45.314453 L 21.912109 45.232422 L 21.912109 45.15625 L 21.912109 45.074219 L 21.912109 44.990234 L 21.912109 44.908203 L 21.912109 44.824219 L 21.912109 44.742188 L 21.912109 44.658203 L 21.912109 44.583984 L 21.912109 44.501953 L 21.912109 44.417969 L 21.912109 44.335938 L 21.912109 44.251953 L 21.912109 44.169922 L 21.912109 44.085938 L 21.912109 44.011719 L 21.912109 43.927734 L 21.912109 43.845703 L 21.912109 43.761719 L 21.912109 43.679688 L 21.912109 43.595703 L 21.912109 43.521484 L 21.912109 43.4375 L 21.912109 43.355469 L 21.912109 43.271484 L 21.830078 43.271484 L 21.748047 43.271484 L 21.664062 43.271484 L 21.582031 43.271484 L 21.5 43.271484 L 21.417969 43.271484 L 21.335938 43.271484 L 21.251953 43.271484 L 21.169922 43.271484 L 21.085938 43.271484 L 21.003906 43.271484 L 20.921875 43.271484 L 20.837891 43.271484 L 20.755859 43.271484 L 20.671875 43.271484 L 20.589844 43.271484 L 20.507812 43.271484 L 20.423828 43.271484 L 20.341797 43.271484 L 20.259766 43.271484 L 20.175781 43.271484 L 20.09375 43.271484 L 20.009766 43.271484 L 19.927734 43.271484 L 19.845703 43.271484 L 19.761719 43.271484 L 19.679688 43.271484 L 19.595703 43.271484 L 19.513672 43.271484 L 19.431641 43.271484 L 19.347656 43.271484 L 19.265625 43.271484 L 19.181641 43.271484 L 19.181641 43.355469 L 19.181641 43.429688 L 19.181641 43.513672 L 19.181641 43.595703 L 19.181641 43.679688 L 19.181641 43.753906 L 19.181641 43.837891 L 19.181641 43.919922 L 19.181641 44.003906 L 19.181641 44.078125 L 19.181641 44.160156 L 19.181641 44.244141 L 19.181641 44.326172 L 19.181641 44.402344 L 19.181641 44.484375 L 19.265625 44.484375 L 19.339844 44.484375 L 19.423828 44.484375 L 19.505859 44.484375 L 19.589844 44.484375 L 19.664062 44.484375 L 19.746094 44.484375 L 19.830078 44.484375 L 19.912109 44.484375 L 19.988281 44.484375 L 20.070312 44.484375 L 20.154297 44.484375 L 20.236328 44.484375 L 20.3125 44.484375 L 20.394531 44.484375 L 20.394531 44.568359 L 20.394531 44.650391 L 20.394531 44.734375 L 20.394531 44.816406 L 20.394531 44.908203 L 20.394531 44.990234 L 20.394531 45.074219 L 20.394531 45.15625 L 20.394531 45.240234 L 20.328125 45.28125 L 20.271484 45.314453 L 20.197266 45.347656 L 20.130859 45.380859 L 20.056641 45.414062 L 19.982422 45.431641 L 19.900391 45.455078 L 19.816406 45.472656 L 19.734375 45.490234 L 19.650391 45.498047 L 19.560547 45.505859 L 19.46875 45.513672 L 19.369141 45.513672 L 19.279297 45.513672 L 19.1875 45.505859 L 19.105469 45.498047 L 19.021484 45.480469 L 18.939453 45.464844 L 18.855469 45.439453 L 18.773438 45.414062 L 18.697266 45.380859 L 18.623047 45.347656 L 18.550781 45.314453 L 18.484375 45.273438 L 18.417969 45.232422 L 18.351562 45.183594 L 18.285156 45.132812 L 18.228516 45.082031 L 18.179688 45.025391 L 18.121094 44.966797 L 18.070312 44.908203 L 18.021484 44.84375 L 17.980469 44.777344 L 17.939453 44.710938 L 17.898438 44.636719 L 17.865234 44.560547 L 17.832031 44.478516 L 17.808594 44.412109 L 17.783203 44.337891 L 17.765625 44.261719 L 17.748047 44.1875 L 17.732422 44.111328 L 17.724609 44.029297 L 17.716797 43.953125 L 17.707031 43.871094 L 17.707031 43.787109 L 17.707031 43.771484 L 17.707031 43.679688 L 17.716797 43.597656 L 17.724609 43.513672 L 17.740234 43.423828 L 17.757812 43.347656 L 17.775391 43.265625 L 17.800781 43.181641 L 17.832031 43.107422 L 17.857422 43.03125 L 17.890625 42.957031 L 17.933594 42.890625 L 17.974609 42.816406 L 18.015625 42.75 L 18.056641 42.691406 L 18.107422 42.626953 L 18.164062 42.568359 L 18.214844 42.509766 L 18.273438 42.460938 L 18.330078 42.410156 L 18.388672 42.359375 L 18.455078 42.318359 L 18.521484 42.275391 L 18.587891 42.234375 L 18.660156 42.201172 L 18.734375 42.169922 L 18.808594 42.144531 L 18.884766 42.119141 L 18.957031 42.101562 L 19.041016 42.085938 L 19.115234 42.076172 L 19.199219 42.068359 L 19.28125 42.068359 L 19.373047 42.068359 L 19.464844 42.076172 L 19.554688 42.085938 L 19.638672 42.09375 L 19.720703 42.109375 L 19.802734 42.126953 L 19.878906 42.144531 L 19.951172 42.169922 L 20.025391 42.193359 L 20.091797 42.21875 L 20.158203 42.251953 L 20.224609 42.285156 L 20.298828 42.326172 L 20.363281 42.367188 L 20.429688 42.410156 L 20.496094 42.451172 L 20.5625 42.501953 L 20.628906 42.542969 L 20.693359 42.601562 L 20.759766 42.650391 L 20.808594 42.585938 L 20.867188 42.527344 L 20.916016 42.460938 L 20.974609 42.394531 L 21.023438 42.328125 L 21.072266 42.271484 L 21.130859 42.205078 L 21.181641 42.138672 L 21.238281 42.072266 L 21.289062 42.015625 L 21.337891 41.949219 L 21.396484 41.882812 L 21.445312 41.824219 L 21.494141 41.759766 L 21.552734 41.693359 L 21.603516 41.626953 L 21.660156 41.568359 L 21.710938 41.503906 L 21.644531 41.453125 L 21.578125 41.394531 L 21.513672 41.345703 L 21.447266 41.294922 L 21.380859 41.253906 L 21.314453 41.203125 L 21.240234 41.160156 L 21.173828 41.119141 L 21.099609 41.078125 L 21.033203 41.037109 L 20.960938 41.005859 L 20.886719 40.964844 L 20.810547 40.931641 L 20.736328 40.898438 L 20.662109 40.865234 L 20.587891 40.839844 L 20.521484 40.814453 L 20.447266 40.798828 L 20.373047 40.773438 L 20.298828 40.755859 L 20.224609 40.738281 L 20.150391 40.722656 L 20.066406 40.705078 L 19.984375 40.6875 L 19.910156 40.679688 L 19.818359 40.662109 L 19.736328 40.654297 L 19.652344 40.654297 L 19.5625 40.646484 L 19.470703 40.638672 L 19.380859 40.638672 L 19.289062 40.638672 L 19.205078 40.638672 L 19.115234 40.638672 z M 45.164062 40.65625 L 45.080078 40.664062 L 44.998047 40.671875 L 44.914062 40.679688 L 44.832031 40.6875 L 44.757812 40.705078 L 44.675781 40.722656 L 44.599609 40.738281 L 44.525391 40.755859 L 44.460938 40.773438 L 44.384766 40.798828 L 44.302734 40.830078 L 44.220703 40.855469 L 44.144531 40.888672 L 44.070312 40.929688 L 43.996094 40.962891 L 43.921875 41.003906 L 43.855469 41.044922 L 43.789062 41.095703 L 43.724609 41.144531 L 43.666016 41.185547 L 43.599609 41.244141 L 43.542969 41.310547 L 43.484375 41.367188 L 43.425781 41.433594 L 43.376953 41.5 L 43.326172 41.566406 L 43.285156 41.640625 L 43.244141 41.716797 L 43.212891 41.791016 L 43.179688 41.865234 L 43.146484 41.941406 L 43.128906 42.015625 L 43.103516 42.091797 L 43.087891 42.166016 L 43.070312 42.240234 L 43.0625 42.324219 L 43.054688 42.398438 L 43.046875 42.482422 L 43.046875 42.564453 L 43.046875 42.582031 L 43.046875 42.673828 L 43.054688 42.763672 L 43.0625 42.847656 L 43.070312 42.929688 L 43.087891 43.005859 L 43.103516 43.087891 L 43.128906 43.154297 L 43.152344 43.228516 L 43.177734 43.294922 L 43.210938 43.353516 L 43.251953 43.427734 L 43.292969 43.494141 L 43.335938 43.552734 L 43.384766 43.609375 L 43.433594 43.667969 L 43.492188 43.726562 L 43.550781 43.783203 L 43.607422 43.833984 L 43.673828 43.875 L 43.740234 43.925781 L 43.814453 43.966797 L 43.880859 44.007812 L 43.962891 44.048828 L 44.037109 44.089844 L 44.119141 44.121094 L 44.203125 44.154297 L 44.285156 44.1875 L 44.376953 44.220703 L 44.451172 44.246094 L 44.525391 44.271484 L 44.599609 44.296875 L 44.681641 44.3125 L 44.757812 44.337891 L 44.839844 44.363281 L 44.921875 44.380859 L 45.005859 44.404297 L 45.087891 44.421875 L 45.179688 44.447266 L 45.261719 44.464844 L 45.353516 44.488281 L 45.435547 44.505859 L 45.519531 44.53125 L 45.59375 44.548828 L 45.667969 44.572266 L 45.734375 44.589844 L 45.792969 44.607422 L 45.890625 44.648438 L 45.974609 44.681641 L 46.048828 44.714844 L 46.113281 44.746094 L 46.179688 44.796875 L 46.238281 44.847656 L 46.279297 44.904297 L 46.3125 44.988281 L 46.320312 45.087891 L 46.320312 45.105469 L 46.3125 45.1875 L 46.287109 45.263672 L 46.255859 45.328125 L 46.205078 45.386719 L 46.140625 45.4375 L 46.082031 45.470703 L 46.015625 45.494141 L 45.941406 45.511719 L 45.867188 45.529297 L 45.785156 45.546875 L 45.693359 45.554688 L 45.595703 45.554688 L 45.511719 45.554688 L 45.421875 45.546875 L 45.337891 45.546875 L 45.255859 45.529297 L 45.164062 45.521484 L 45.080078 45.503906 L 44.998047 45.486328 L 44.914062 45.470703 L 44.841797 45.445312 L 44.757812 45.419922 L 44.675781 45.394531 L 44.599609 45.361328 L 44.525391 45.337891 L 44.451172 45.304688 L 44.376953 45.271484 L 44.302734 45.238281 L 44.236328 45.195312 L 44.162109 45.162109 L 44.095703 45.121094 L 44.021484 45.070312 L 43.955078 45.029297 L 43.882812 44.980469 L 43.816406 44.929688 L 43.742188 44.880859 L 43.675781 44.830078 L 43.626953 44.896484 L 43.568359 44.953125 L 43.517578 45.019531 L 43.460938 45.085938 L 43.410156 45.144531 L 43.361328 45.210938 L 43.302734 45.275391 L 43.253906 45.333984 L 43.195312 45.400391 L 43.146484 45.457031 L 43.089844 45.523438 L 43.039062 45.589844 L 42.990234 45.648438 L 42.931641 45.714844 L 42.882812 45.779297 L 42.824219 45.837891 L 42.773438 45.904297 L 42.839844 45.962891 L 42.898438 46.011719 L 42.964844 46.0625 L 43.029297 46.111328 L 43.095703 46.162109 L 43.162109 46.212891 L 43.228516 46.253906 L 43.294922 46.294922 L 43.369141 46.335938 L 43.435547 46.376953 L 43.509766 46.419922 L 43.583984 46.451172 L 43.658203 46.492188 L 43.732422 46.525391 L 43.806641 46.558594 L 43.890625 46.591797 L 43.964844 46.617188 L 44.046875 46.642578 L 44.121094 46.675781 L 44.205078 46.699219 L 44.287109 46.724609 L 44.361328 46.742188 L 44.445312 46.767578 L 44.527344 46.783203 L 44.609375 46.800781 L 44.693359 46.818359 L 44.775391 46.835938 L 44.857422 46.84375 L 44.941406 46.859375 L 45.03125 46.867188 L 45.115234 46.876953 L 45.197266 46.884766 L 45.289062 46.884766 L 45.371094 46.892578 L 45.455078 46.892578 L 45.546875 46.892578 L 45.636719 46.892578 L 45.720703 46.892578 L 45.802734 46.884766 L 45.894531 46.876953 L 45.976562 46.867188 L 46.050781 46.859375 L 46.134766 46.851562 L 46.216797 46.835938 L 46.291016 46.818359 L 46.365234 46.800781 L 46.447266 46.783203 L 46.521484 46.759766 L 46.603516 46.734375 L 46.6875 46.708984 L 46.769531 46.675781 L 46.853516 46.642578 L 46.927734 46.601562 L 47.001953 46.568359 L 47.076172 46.527344 L 47.142578 46.478516 L 47.207031 46.4375 L 47.273438 46.386719 L 47.332031 46.337891 L 47.398438 46.279297 L 47.447266 46.228516 L 47.505859 46.171875 L 47.554688 46.113281 L 47.595703 46.046875 L 47.644531 45.980469 L 47.6875 45.914062 L 47.728516 45.849609 L 47.761719 45.773438 L 47.794922 45.707031 L 47.828125 45.632812 L 47.853516 45.550781 L 47.869141 45.474609 L 47.894531 45.392578 L 47.910156 45.308594 L 47.919922 45.21875 L 47.927734 45.134766 L 47.935547 45.042969 L 47.935547 44.951172 L 47.935547 44.933594 L 47.935547 44.84375 L 47.927734 44.751953 L 47.919922 44.669922 L 47.902344 44.585938 L 47.886719 44.503906 L 47.869141 44.427734 L 47.845703 44.353516 L 47.820312 44.277344 L 47.787109 44.212891 L 47.744141 44.136719 L 47.703125 44.070312 L 47.654297 43.996094 L 47.605469 43.929688 L 47.546875 43.871094 L 47.488281 43.806641 L 47.423828 43.748047 L 47.357422 43.689453 L 47.291016 43.648438 L 47.224609 43.599609 L 47.158203 43.558594 L 47.085938 43.517578 L 47.009766 43.474609 L 46.927734 43.433594 L 46.84375 43.400391 L 46.761719 43.359375 L 46.671875 43.326172 L 46.597656 43.300781 L 46.523438 43.275391 L 46.439453 43.251953 L 46.365234 43.226562 L 46.283203 43.201172 L 46.199219 43.175781 L 46.117188 43.158203 L 46.025391 43.134766 L 45.943359 43.109375 L 45.851562 43.091797 L 45.761719 43.066406 L 45.669922 43.042969 L 45.578125 43.017578 L 45.496094 43 L 45.421875 42.974609 L 45.347656 42.957031 L 45.28125 42.933594 L 45.214844 42.916016 L 45.115234 42.882812 L 45.025391 42.849609 L 44.941406 42.816406 L 44.876953 42.775391 L 44.800781 42.734375 L 44.742188 42.677734 L 44.710938 42.626953 L 44.669922 42.535156 L 44.660156 42.427734 L 44.660156 42.410156 L 44.669922 42.328125 L 44.701172 42.253906 L 44.751953 42.177734 L 44.826172 42.111328 L 44.884766 42.078125 L 44.949219 42.046875 L 45.023438 42.029297 L 45.107422 42.011719 L 45.197266 41.994141 L 45.296875 41.994141 L 45.380859 41.994141 L 45.453125 42.003906 L 45.537109 42.011719 L 45.619141 42.019531 L 45.703125 42.035156 L 45.785156 42.052734 L 45.867188 42.070312 L 45.951172 42.095703 L 46.033203 42.119141 L 46.125 42.144531 L 46.191406 42.177734 L 46.265625 42.203125 L 46.330078 42.236328 L 46.40625 42.269531 L 46.472656 42.302734 L 46.546875 42.335938 L 46.611328 42.376953 L 46.685547 42.410156 L 46.751953 42.460938 L 46.818359 42.501953 L 46.892578 42.542969 L 46.957031 42.59375 L 47.007812 42.527344 L 47.048828 42.460938 L 47.097656 42.394531 L 47.148438 42.328125 L 47.197266 42.253906 L 47.238281 42.1875 L 47.289062 42.121094 L 47.337891 42.056641 L 47.378906 41.990234 L 47.427734 41.923828 L 47.478516 41.857422 L 47.519531 41.792969 L 47.568359 41.716797 L 47.619141 41.650391 L 47.667969 41.585938 L 47.710938 41.519531 L 47.759766 41.453125 L 47.693359 41.402344 L 47.626953 41.353516 L 47.560547 41.302734 L 47.494141 41.261719 L 47.419922 41.212891 L 47.353516 41.169922 L 47.279297 41.128906 L 47.205078 41.087891 L 47.138672 41.054688 L 47.064453 41.013672 L 46.982422 40.980469 L 46.908203 40.947266 L 46.833984 40.914062 L 46.759766 40.890625 L 46.677734 40.857422 L 46.603516 40.839844 L 46.529297 40.814453 L 46.445312 40.789062 L 46.371094 40.773438 L 46.289062 40.755859 L 46.205078 40.738281 L 46.130859 40.722656 L 46.048828 40.705078 L 45.957031 40.697266 L 45.873047 40.679688 L 45.783203 40.671875 L 45.701172 40.671875 L 45.609375 40.664062 L 45.519531 40.65625 L 45.427734 40.65625 L 45.337891 40.65625 L 45.246094 40.65625 L 45.164062 40.65625 z M 25.078125 40.693359 L 25.046875 40.767578 L 25.013672 40.84375 L 24.980469 40.917969 L 24.955078 41.001953 L 24.921875 41.076172 L 24.888672 41.150391 L 24.855469 41.226562 L 24.822266 41.300781 L 24.789062 41.376953 L 24.757812 41.458984 L 24.724609 41.533203 L 24.699219 41.609375 L 24.667969 41.683594 L 24.634766 41.759766 L 24.601562 41.833984 L 24.568359 41.917969 L 24.535156 41.992188 L 24.501953 42.066406 L 24.46875 42.142578 L 24.443359 42.216797 L 24.410156 42.292969 L 24.378906 42.375 L 24.345703 42.449219 L 24.3125 42.525391 L 24.279297 42.599609 L 24.246094 42.675781 L 24.212891 42.75 L 24.1875 42.832031 L 24.154297 42.908203 L 24.121094 42.982422 L 24.089844 43.058594 L 24.056641 43.132812 L 24.023438 43.207031 L 23.990234 43.291016 L 23.957031 43.365234 L 23.931641 43.439453 L 23.898438 43.515625 L 23.865234 43.589844 L 23.832031 43.664062 L 23.800781 43.740234 L 23.767578 43.822266 L 23.734375 43.898438 L 23.701172 43.972656 L 23.675781 44.048828 L 23.642578 44.123047 L 23.609375 44.197266 L 23.576172 44.28125 L 23.544922 44.355469 L 23.511719 44.431641 L 23.478516 44.505859 L 23.445312 44.580078 L 23.419922 44.65625 L 23.386719 44.738281 L 23.353516 44.814453 L 23.320312 44.888672 L 23.287109 44.964844 L 23.255859 45.039062 L 23.222656 45.113281 L 23.189453 45.197266 L 23.164062 45.271484 L 23.130859 45.347656 L 23.097656 45.421875 L 23.064453 45.496094 L 23.03125 45.572266 L 22.998047 45.654297 L 22.966797 45.730469 L 22.933594 45.804688 L 22.908203 45.880859 L 22.875 45.955078 L 22.841797 46.029297 L 22.808594 46.113281 L 22.775391 46.1875 L 22.742188 46.263672 L 22.710938 46.337891 L 22.677734 46.412109 L 22.652344 46.486328 L 22.619141 46.570312 L 22.585938 46.644531 L 22.552734 46.720703 L 22.519531 46.794922 L 22.603516 46.794922 L 22.685547 46.794922 L 22.769531 46.794922 L 22.851562 46.794922 L 22.943359 46.794922 L 23.025391 46.794922 L 23.107422 46.794922 L 23.191406 46.794922 L 23.273438 46.794922 L 23.357422 46.794922 L 23.439453 46.794922 L 23.523438 46.794922 L 23.605469 46.794922 L 23.689453 46.794922 L 23.779297 46.794922 L 23.861328 46.794922 L 23.945312 46.794922 L 24.027344 46.794922 L 24.111328 46.794922 L 24.193359 46.794922 L 24.226562 46.720703 L 24.251953 46.644531 L 24.285156 46.570312 L 24.318359 46.486328 L 24.34375 46.412109 L 24.376953 46.337891 L 24.408203 46.263672 L 24.433594 46.1875 L 24.466797 46.113281 L 24.5 46.037109 L 24.523438 45.962891 L 24.556641 45.880859 L 24.589844 45.804688 L 24.615234 45.730469 L 24.648438 45.654297 L 24.730469 45.654297 L 24.814453 45.654297 L 24.896484 45.654297 L 24.978516 45.654297 L 25.054688 45.654297 L 25.136719 45.654297 L 25.21875 45.654297 L 25.302734 45.654297 L 25.384766 45.654297 L 25.46875 45.654297 L 25.550781 45.654297 L 25.632812 45.654297 L 25.716797 45.654297 L 25.798828 45.654297 L 25.873047 45.654297 L 25.955078 45.654297 L 26.039062 45.654297 L 26.121094 45.654297 L 26.203125 45.654297 L 26.287109 45.654297 L 26.369141 45.654297 L 26.453125 45.654297 L 26.535156 45.654297 L 26.617188 45.654297 L 26.693359 45.654297 L 26.775391 45.654297 L 26.859375 45.654297 L 26.941406 45.654297 L 27.023438 45.654297 L 27.056641 45.730469 L 27.082031 45.804688 L 27.115234 45.880859 L 27.148438 45.962891 L 27.173828 46.037109 L 27.205078 46.113281 L 27.238281 46.1875 L 27.263672 46.263672 L 27.296875 46.337891 L 27.328125 46.412109 L 27.353516 46.486328 L 27.386719 46.570312 L 27.419922 46.644531 L 27.443359 46.720703 L 27.476562 46.794922 L 27.560547 46.794922 L 27.642578 46.794922 L 27.716797 46.794922 L 27.800781 46.794922 L 27.882812 46.794922 L 27.966797 46.794922 L 28.048828 46.794922 L 28.123047 46.794922 L 28.205078 46.794922 L 28.289062 46.794922 L 28.371094 46.794922 L 28.453125 46.794922 L 28.537109 46.794922 L 28.611328 46.794922 L 28.693359 46.794922 L 28.775391 46.794922 L 28.859375 46.794922 L 28.941406 46.794922 L 29.015625 46.794922 L 29.097656 46.794922 L 29.167969 46.794922 L 29.134766 46.720703 L 29.101562 46.644531 L 29.068359 46.570312 L 29.044922 46.486328 L 29.011719 46.412109 L 28.978516 46.337891 L 28.945312 46.263672 L 28.912109 46.1875 L 28.878906 46.113281 L 28.845703 46.029297 L 28.8125 45.955078 L 28.787109 45.880859 L 28.755859 45.804688 L 28.722656 45.730469 L 28.689453 45.654297 L 28.65625 45.572266 L 28.623047 45.496094 L 28.589844 45.421875 L 28.556641 45.347656 L 28.533203 45.271484 L 28.5 45.197266 L 28.466797 45.113281 L 28.433594 45.039062 L 28.400391 44.964844 L 28.367188 44.888672 L 28.335938 44.814453 L 28.302734 44.738281 L 28.277344 44.65625 L 28.244141 44.580078 L 28.210938 44.505859 L 28.177734 44.431641 L 28.144531 44.355469 L 28.111328 44.28125 L 28.078125 44.197266 L 28.046875 44.123047 L 28.021484 44.048828 L 27.988281 43.972656 L 27.955078 43.898438 L 27.921875 43.822266 L 27.888672 43.740234 L 27.855469 43.664062 L 27.822266 43.589844 L 27.789062 43.515625 L 27.765625 43.439453 L 27.732422 43.365234 L 27.699219 43.291016 L 27.667969 43.207031 L 27.634766 43.132812 L 27.601562 43.058594 L 27.568359 42.982422 L 27.535156 42.908203 L 27.509766 42.832031 L 27.476562 42.75 L 27.443359 42.675781 L 27.410156 42.599609 L 27.378906 42.525391 L 27.345703 42.449219 L 27.3125 42.375 L 27.279297 42.292969 L 27.253906 42.216797 L 27.220703 42.142578 L 27.1875 42.066406 L 27.154297 41.992188 L 27.121094 41.917969 L 27.089844 41.833984 L 27.056641 41.759766 L 27.023438 41.683594 L 26.998047 41.609375 L 26.966797 41.533203 L 26.933594 41.458984 L 26.900391 41.376953 L 26.867188 41.300781 L 26.833984 41.226562 L 26.800781 41.150391 L 26.767578 41.076172 L 26.742188 41.001953 L 26.710938 40.917969 L 26.677734 40.84375 L 26.644531 40.767578 L 26.611328 40.693359 L 26.527344 40.693359 L 26.453125 40.693359 L 26.371094 40.693359 L 26.287109 40.693359 L 26.205078 40.693359 L 26.130859 40.693359 L 26.048828 40.693359 L 25.964844 40.693359 L 25.882812 40.693359 L 25.808594 40.693359 L 25.726562 40.693359 L 25.642578 40.693359 L 25.560547 40.693359 L 25.486328 40.693359 L 25.402344 40.693359 L 25.320312 40.693359 L 25.236328 40.693359 L 25.162109 40.693359 L 25.078125 40.693359 z M 29.837891 40.744141 L 29.837891 40.828125 L 29.837891 40.910156 L 29.837891 40.994141 L 29.837891 41.076172 L 29.837891 41.160156 L 29.837891 41.242188 L 29.837891 41.326172 L 29.837891 41.408203 L 29.837891 41.492188 L 29.837891 41.574219 L 29.837891 41.658203 L 29.837891 41.740234 L 29.837891 41.824219 L 29.837891 41.90625 L 29.837891 41.990234 L 29.837891 42.072266 L 29.837891 42.15625 L 29.837891 42.238281 L 29.837891 42.314453 L 29.837891 42.396484 L 29.837891 42.480469 L 29.837891 42.5625 L 29.837891 42.646484 L 29.837891 42.728516 L 29.837891 42.8125 L 29.837891 42.894531 L 29.837891 42.978516 L 29.837891 43.060547 L 29.837891 43.144531 L 29.837891 43.226562 L 29.837891 43.310547 L 29.837891 43.392578 L 29.837891 43.476562 L 29.837891 43.558594 L 29.837891 43.642578 L 29.837891 43.724609 L 29.837891 43.808594 L 29.837891 43.890625 L 29.837891 43.974609 L 29.837891 44.056641 L 29.837891 44.140625 L 29.837891 44.222656 L 29.837891 44.306641 L 29.837891 44.388672 L 29.837891 44.472656 L 29.837891 44.554688 L 29.837891 44.638672 L 29.837891 44.720703 L 29.837891 44.804688 L 29.837891 44.886719 L 29.837891 44.970703 L 29.837891 45.052734 L 29.837891 45.136719 L 29.837891 45.21875 L 29.837891 45.294922 L 29.837891 45.376953 L 29.837891 45.460938 L 29.837891 45.542969 L 29.837891 45.626953 L 29.837891 45.708984 L 29.837891 45.792969 L 29.837891 45.875 L 29.837891 45.957031 L 29.837891 46.041016 L 29.837891 46.123047 L 29.837891 46.207031 L 29.837891 46.289062 L 29.837891 46.373047 L 29.837891 46.455078 L 29.837891 46.539062 L 29.837891 46.621094 L 29.837891 46.705078 L 29.837891 46.787109 L 29.921875 46.787109 L 30.003906 46.787109 L 30.087891 46.787109 L 30.169922 46.787109 L 30.251953 46.787109 L 30.335938 46.787109 L 30.417969 46.787109 L 30.501953 46.787109 L 30.583984 46.787109 L 30.667969 46.787109 L 30.75 46.787109 L 30.832031 46.787109 L 30.916016 46.787109 L 30.998047 46.787109 L 31.082031 46.787109 L 31.164062 46.787109 L 31.246094 46.787109 L 31.330078 46.787109 L 31.412109 46.787109 L 31.412109 46.705078 L 31.412109 46.621094 L 31.412109 46.539062 L 31.412109 46.455078 L 31.412109 46.371094 L 31.412109 46.289062 L 31.412109 46.205078 L 31.412109 46.123047 L 31.412109 46.039062 L 31.412109 45.957031 L 31.412109 45.882812 L 31.412109 45.798828 L 31.412109 45.716797 L 31.412109 45.632812 L 31.412109 45.550781 L 31.412109 45.466797 L 31.412109 45.382812 L 31.412109 45.300781 L 31.412109 45.216797 L 31.412109 45.134766 L 31.412109 45.050781 L 31.412109 44.96875 L 31.412109 44.884766 L 31.412109 44.802734 L 31.412109 44.71875 L 31.412109 44.636719 L 31.412109 44.552734 L 31.412109 44.470703 L 31.412109 44.386719 L 31.412109 44.302734 L 31.412109 44.220703 L 31.412109 44.136719 L 31.412109 44.0625 L 31.412109 43.978516 L 31.412109 43.896484 L 31.412109 43.8125 L 31.412109 43.730469 L 31.412109 43.646484 L 31.412109 43.564453 L 31.412109 43.480469 L 31.412109 43.398438 L 31.412109 43.314453 L 31.412109 43.232422 L 31.462891 43.298828 L 31.503906 43.373047 L 31.552734 43.439453 L 31.595703 43.513672 L 31.644531 43.580078 L 31.685547 43.654297 L 31.736328 43.722656 L 31.777344 43.796875 L 31.826172 43.863281 L 31.869141 43.9375 L 31.917969 44.003906 L 31.958984 44.078125 L 32.007812 44.144531 L 32.050781 44.220703 L 32.099609 44.285156 L 32.140625 44.361328 L 32.191406 44.427734 L 32.240234 44.501953 L 32.28125 44.568359 L 32.330078 44.642578 L 32.373047 44.708984 L 32.423828 44.783203 L 32.464844 44.849609 L 32.513672 44.925781 L 32.554688 44.990234 L 32.605469 45.066406 L 32.646484 45.132812 L 32.695312 45.207031 L 32.736328 45.273438 L 32.785156 45.349609 L 32.828125 45.414062 L 32.876953 45.490234 L 32.919922 45.556641 L 32.96875 45.632812 L 33.001953 45.632812 L 33.044922 45.566406 L 33.09375 45.490234 L 33.134766 45.425781 L 33.183594 45.359375 L 33.224609 45.283203 L 33.275391 45.21875 L 33.316406 45.150391 L 33.357422 45.076172 L 33.408203 45.009766 L 33.449219 44.943359 L 33.498047 44.876953 L 33.539062 44.802734 L 33.589844 44.736328 L 33.632812 44.669922 L 33.673828 44.595703 L 33.722656 44.529297 L 33.763672 44.462891 L 33.814453 44.388672 L 33.855469 44.322266 L 33.904297 44.255859 L 33.947266 44.179688 L 33.988281 44.113281 L 34.037109 44.048828 L 34.078125 43.972656 L 34.128906 43.90625 L 34.171875 43.841797 L 34.220703 43.775391 L 34.261719 43.699219 L 34.302734 43.634766 L 34.353516 43.568359 L 34.394531 43.492188 L 34.443359 43.427734 L 34.484375 43.361328 L 34.533203 43.285156 L 34.574219 43.220703 L 34.574219 43.302734 L 34.574219 43.386719 L 34.574219 43.46875 L 34.574219 43.552734 L 34.574219 43.636719 L 34.574219 43.71875 L 34.574219 43.802734 L 34.574219 43.884766 L 34.574219 43.96875 L 34.574219 44.052734 L 34.574219 44.134766 L 34.574219 44.21875 L 34.574219 44.300781 L 34.574219 44.384766 L 34.574219 44.46875 L 34.574219 44.550781 L 34.574219 44.634766 L 34.574219 44.716797 L 34.574219 44.800781 L 34.574219 44.882812 L 34.574219 44.966797 L 34.574219 45.050781 L 34.574219 45.132812 L 34.574219 45.216797 L 34.574219 45.298828 L 34.574219 45.382812 L 34.574219 45.466797 L 34.574219 45.548828 L 34.574219 45.632812 L 34.574219 45.714844 L 34.574219 45.798828 L 34.574219 45.880859 L 34.574219 45.964844 L 34.574219 46.046875 L 34.574219 46.130859 L 34.574219 46.212891 L 34.574219 46.296875 L 34.574219 46.378906 L 34.574219 46.462891 L 34.574219 46.546875 L 34.574219 46.628906 L 34.574219 46.712891 L 34.574219 46.794922 L 34.658203 46.794922 L 34.740234 46.794922 L 34.824219 46.794922 L 34.914062 46.794922 L 34.998047 46.794922 L 35.080078 46.794922 L 35.164062 46.794922 L 35.246094 46.794922 L 35.330078 46.794922 L 35.421875 46.794922 L 35.503906 46.794922 L 35.587891 46.794922 L 35.669922 46.794922 L 35.753906 46.794922 L 35.835938 46.794922 L 35.927734 46.794922 L 36.009766 46.794922 L 36.091797 46.794922 L 36.091797 46.787109 L 36.173828 46.787109 L 36.173828 46.705078 L 36.173828 46.621094 L 36.173828 46.539062 L 36.173828 46.455078 L 36.173828 46.373047 L 36.173828 46.289062 L 36.173828 46.207031 L 36.173828 46.123047 L 36.173828 46.041016 L 36.173828 45.957031 L 36.173828 45.875 L 36.173828 45.792969 L 36.173828 45.708984 L 36.173828 45.626953 L 36.173828 45.542969 L 36.173828 45.460938 L 36.173828 45.376953 L 36.173828 45.294922 L 36.173828 45.21875 L 36.173828 45.136719 L 36.173828 45.052734 L 36.173828 44.970703 L 36.173828 44.886719 L 36.173828 44.804688 L 36.173828 44.720703 L 36.173828 44.638672 L 36.173828 44.554688 L 36.173828 44.472656 L 36.173828 44.388672 L 36.173828 44.306641 L 36.173828 44.222656 L 36.173828 44.140625 L 36.173828 44.056641 L 36.173828 43.974609 L 36.173828 43.890625 L 36.173828 43.808594 L 36.173828 43.724609 L 36.173828 43.642578 L 36.173828 43.558594 L 36.173828 43.476562 L 36.173828 43.392578 L 36.173828 43.310547 L 36.173828 43.226562 L 36.173828 43.144531 L 36.173828 43.060547 L 36.173828 42.978516 L 36.173828 42.894531 L 36.173828 42.8125 L 36.173828 42.728516 L 36.173828 42.646484 L 36.173828 42.5625 L 36.173828 42.480469 L 36.173828 42.396484 L 36.173828 42.314453 L 36.173828 42.238281 L 36.173828 42.15625 L 36.173828 42.072266 L 36.173828 41.990234 L 36.173828 41.90625 L 36.173828 41.824219 L 36.173828 41.740234 L 36.173828 41.658203 L 36.173828 41.574219 L 36.173828 41.492188 L 36.173828 41.408203 L 36.173828 41.326172 L 36.173828 41.242188 L 36.173828 41.160156 L 36.173828 41.076172 L 36.173828 40.994141 L 36.173828 40.910156 L 36.173828 40.828125 L 36.173828 40.744141 L 36.091797 40.744141 L 36.009766 40.744141 L 35.933594 40.744141 L 35.851562 40.744141 L 35.769531 40.744141 L 35.685547 40.744141 L 35.611328 40.744141 L 35.527344 40.744141 L 35.445312 40.744141 L 35.363281 40.744141 L 35.287109 40.744141 L 35.205078 40.744141 L 35.123047 40.744141 L 35.039062 40.744141 L 34.964844 40.744141 L 34.882812 40.744141 L 34.800781 40.744141 L 34.716797 40.744141 L 34.642578 40.744141 L 34.558594 40.744141 L 34.476562 40.744141 L 34.435547 40.810547 L 34.394531 40.886719 L 34.34375 40.951172 L 34.302734 41.027344 L 34.261719 41.09375 L 34.21875 41.167969 L 34.169922 41.234375 L 34.128906 41.308594 L 34.087891 41.375 L 34.046875 41.441406 L 33.996094 41.515625 L 33.955078 41.580078 L 33.912109 41.65625 L 33.871094 41.722656 L 33.822266 41.796875 L 33.78125 41.861328 L 33.740234 41.927734 L 33.697266 42.001953 L 33.65625 42.068359 L 33.607422 42.142578 L 33.566406 42.208984 L 33.523438 42.283203 L 33.482422 42.349609 L 33.433594 42.423828 L 33.392578 42.490234 L 33.349609 42.556641 L 33.308594 42.630859 L 33.259766 42.697266 L 33.216797 42.771484 L 33.175781 42.837891 L 33.134766 42.912109 L 33.085938 42.978516 L 33.044922 43.052734 L 33.001953 43.119141 L 32.960938 43.052734 L 32.919922 42.978516 L 32.869141 42.912109 L 32.828125 42.837891 L 32.787109 42.771484 L 32.746094 42.697266 L 32.703125 42.630859 L 32.654297 42.556641 L 32.613281 42.490234 L 32.570312 42.423828 L 32.529297 42.349609 L 32.488281 42.283203 L 32.4375 42.208984 L 32.396484 42.142578 L 32.355469 42.068359 L 32.314453 42.001953 L 32.271484 41.927734 L 32.222656 41.861328 L 32.181641 41.796875 L 32.138672 41.722656 L 32.097656 41.65625 L 32.048828 41.580078 L 32.005859 41.515625 L 31.964844 41.441406 L 31.923828 41.375 L 31.882812 41.308594 L 31.832031 41.234375 L 31.792969 41.167969 L 31.751953 41.09375 L 31.708984 41.027344 L 31.667969 40.951172 L 31.617188 40.886719 L 31.576172 40.810547 L 31.535156 40.744141 L 31.451172 40.744141 L 31.369141 40.744141 L 31.294922 40.744141 L 31.212891 40.744141 L 31.128906 40.744141 L 31.046875 40.744141 L 30.972656 40.744141 L 30.888672 40.744141 L 30.806641 40.744141 L 30.722656 40.744141 L 30.648438 40.744141 L 30.566406 40.744141 L 30.482422 40.744141 L 30.400391 40.744141 L 30.326172 40.744141 L 30.242188 40.744141 L 30.160156 40.744141 L 30.078125 40.744141 L 30.003906 40.744141 L 29.921875 40.744141 L 29.837891 40.744141 z M 37.392578 40.751953 L 37.392578 40.835938 L 37.392578 40.917969 L 37.392578 41.001953 L 37.392578 41.083984 L 37.392578 41.167969 L 37.392578 41.25 L 37.392578 41.332031 L 37.392578 41.416016 L 37.392578 41.498047 L 37.392578 41.582031 L 37.392578 41.664062 L 37.392578 41.748047 L 37.392578 41.830078 L 37.392578 41.914062 L 37.392578 41.996094 L 37.392578 42.080078 L 37.392578 42.162109 L 37.392578 42.246094 L 37.392578 42.320312 L 37.392578 42.404297 L 37.392578 42.486328 L 37.392578 42.570312 L 37.392578 42.652344 L 37.392578 42.736328 L 37.392578 42.818359 L 37.392578 42.902344 L 37.392578 42.984375 L 37.392578 43.068359 L 37.392578 43.150391 L 37.392578 43.234375 L 37.392578 43.316406 L 37.392578 43.400391 L 37.392578 43.482422 L 37.392578 43.566406 L 37.392578 43.648438 L 37.392578 43.732422 L 37.392578 43.814453 L 37.392578 43.898438 L 37.392578 43.980469 L 37.392578 44.064453 L 37.392578 44.146484 L 37.392578 44.230469 L 37.392578 44.3125 L 37.392578 44.396484 L 37.392578 44.478516 L 37.392578 44.5625 L 37.392578 44.644531 L 37.392578 44.728516 L 37.392578 44.810547 L 37.392578 44.894531 L 37.392578 44.976562 L 37.392578 45.060547 L 37.392578 45.142578 L 37.392578 45.226562 L 37.392578 45.300781 L 37.392578 45.384766 L 37.392578 45.466797 L 37.392578 45.550781 L 37.392578 45.632812 L 37.392578 45.716797 L 37.392578 45.798828 L 37.392578 45.882812 L 37.392578 45.964844 L 37.392578 46.048828 L 37.392578 46.130859 L 37.392578 46.214844 L 37.392578 46.296875 L 37.392578 46.380859 L 37.392578 46.462891 L 37.392578 46.546875 L 37.392578 46.628906 L 37.392578 46.712891 L 37.392578 46.794922 L 37.476562 46.794922 L 37.558594 46.794922 L 37.642578 46.794922 L 37.724609 46.794922 L 37.806641 46.794922 L 37.890625 46.794922 L 37.972656 46.794922 L 38.056641 46.794922 L 38.138672 46.794922 L 38.230469 46.794922 L 38.302734 46.794922 L 38.386719 46.794922 L 38.46875 46.794922 L 38.550781 46.794922 L 38.632812 46.794922 L 38.716797 46.794922 L 38.798828 46.794922 L 38.882812 46.794922 L 38.964844 46.794922 L 39.048828 46.794922 L 39.130859 46.794922 L 39.214844 46.794922 L 39.296875 46.794922 L 39.380859 46.794922 L 39.462891 46.794922 L 39.544922 46.794922 L 39.628906 46.794922 L 39.710938 46.794922 L 39.802734 46.794922 L 39.884766 46.794922 L 39.96875 46.794922 L 40.050781 46.794922 L 40.134766 46.794922 L 40.216797 46.794922 L 40.300781 46.794922 L 40.382812 46.794922 L 40.466797 46.794922 L 40.548828 46.794922 L 40.632812 46.794922 L 40.714844 46.794922 L 40.798828 46.794922 L 40.880859 46.794922 L 40.962891 46.794922 L 41.044922 46.794922 L 41.128906 46.794922 L 41.210938 46.794922 L 41.294922 46.794922 L 41.376953 46.794922 L 41.46875 46.794922 L 41.550781 46.794922 L 41.632812 46.794922 L 41.716797 46.794922 L 41.798828 46.794922 L 41.882812 46.794922 L 41.964844 46.794922 L 42.048828 46.794922 L 42.130859 46.794922 L 42.130859 46.798828 L 42.226562 46.798828 L 42.226562 46.714844 L 42.226562 46.640625 L 42.226562 46.556641 L 42.226562 46.474609 L 42.226562 46.390625 L 42.226562 46.316406 L 42.226562 46.232422 L 42.226562 46.150391 L 42.226562 46.074219 L 42.226562 45.992188 L 42.226562 45.908203 L 42.226562 45.833984 L 42.226562 45.751953 L 42.226562 45.667969 L 42.226562 45.585938 L 42.226562 45.509766 L 42.226562 45.427734 L 42.142578 45.427734 L 42.060547 45.427734 L 41.976562 45.427734 L 41.894531 45.427734 L 41.810547 45.427734 L 41.728516 45.427734 L 41.644531 45.427734 L 41.5625 45.427734 L 41.480469 45.427734 L 41.388672 45.427734 L 41.306641 45.427734 L 41.222656 45.427734 L 41.140625 45.427734 L 41.056641 45.427734 L 40.974609 45.427734 L 40.892578 45.427734 L 40.810547 45.427734 L 40.726562 45.427734 L 40.644531 45.427734 L 40.560547 45.427734 L 40.478516 45.427734 L 40.394531 45.427734 L 40.3125 45.427734 L 40.228516 45.427734 L 40.146484 45.427734 L 40.0625 45.427734 L 39.980469 45.427734 L 39.896484 45.427734 L 39.814453 45.427734 L 39.722656 45.427734 L 39.640625 45.427734 L 39.556641 45.427734 L 39.474609 45.427734 L 39.392578 45.427734 L 39.308594 45.427734 L 39.226562 45.427734 L 39.142578 45.427734 L 39.060547 45.427734 L 38.976562 45.427734 L 38.976562 45.34375 L 38.976562 45.253906 L 38.976562 45.169922 L 38.976562 45.087891 L 38.976562 44.996094 L 38.976562 44.912109 L 38.976562 44.830078 L 38.976562 44.738281 L 38.976562 44.65625 L 38.976562 44.572266 L 38.976562 44.482422 L 38.976562 44.398438 L 39.060547 44.398438 L 39.142578 44.398438 L 39.226562 44.398438 L 39.308594 44.398438 L 39.392578 44.398438 L 39.474609 44.398438 L 39.556641 44.398438 L 39.640625 44.398438 L 39.714844 44.398438 L 39.798828 44.398438 L 39.880859 44.398438 L 39.962891 44.398438 L 40.046875 44.398438 L 40.128906 44.398438 L 40.212891 44.398438 L 40.294922 44.398438 L 40.376953 44.398438 L 40.458984 44.398438 L 40.542969 44.398438 L 40.623047 44.398438 L 40.707031 44.398438 L 40.789062 44.398438 L 40.873047 44.398438 L 40.955078 44.398438 L 41.039062 44.398438 L 41.121094 44.398438 L 41.195312 44.398438 L 41.277344 44.398438 L 41.361328 44.398438 L 41.443359 44.398438 L 41.525391 44.398438 L 41.609375 44.398438 L 41.691406 44.398438 L 41.775391 44.398438 L 41.857422 44.398438 L 41.857422 44.316406 L 41.857422 44.240234 L 41.857422 44.158203 L 41.857422 44.074219 L 41.857422 44 L 41.857422 43.917969 L 41.857422 43.833984 L 41.857422 43.751953 L 41.857422 43.675781 L 41.857422 43.59375 L 41.857422 43.509766 L 41.857422 43.435547 L 41.857422 43.351562 L 41.857422 43.269531 L 41.857422 43.193359 L 41.857422 43.111328 L 41.775391 43.111328 L 41.691406 43.111328 L 41.609375 43.111328 L 41.525391 43.111328 L 41.443359 43.111328 L 41.361328 43.111328 L 41.277344 43.111328 L 41.195312 43.111328 L 41.121094 43.111328 L 41.039062 43.111328 L 40.955078 43.111328 L 40.873047 43.111328 L 40.789062 43.111328 L 40.707031 43.111328 L 40.623047 43.111328 L 40.542969 43.111328 L 40.458984 43.111328 L 40.376953 43.111328 L 40.294922 43.111328 L 40.212891 43.111328 L 40.128906 43.111328 L 40.046875 43.111328 L 39.962891 43.111328 L 39.880859 43.111328 L 39.798828 43.111328 L 39.714844 43.111328 L 39.640625 43.111328 L 39.556641 43.111328 L 39.474609 43.111328 L 39.392578 43.111328 L 39.308594 43.111328 L 39.226562 43.111328 L 39.142578 43.111328 L 39.060547 43.111328 L 38.976562 43.111328 L 38.976562 43.027344 L 38.976562 42.945312 L 38.976562 42.861328 L 38.976562 42.779297 L 38.976562 42.695312 L 38.976562 42.613281 L 38.976562 42.537109 L 38.976562 42.455078 L 38.976562 42.371094 L 38.976562 42.289062 L 38.976562 42.205078 L 38.976562 42.123047 L 39.060547 42.123047 L 39.142578 42.123047 L 39.226562 42.123047 L 39.308594 42.123047 L 39.392578 42.123047 L 39.474609 42.123047 L 39.548828 42.123047 L 39.632812 42.123047 L 39.714844 42.123047 L 39.798828 42.123047 L 39.880859 42.123047 L 39.962891 42.123047 L 40.046875 42.123047 L 40.128906 42.123047 L 40.212891 42.123047 L 40.294922 42.123047 L 40.376953 42.123047 L 40.458984 42.123047 L 40.542969 42.123047 L 40.615234 42.123047 L 40.699219 42.123047 L 40.78125 42.123047 L 40.863281 42.123047 L 40.947266 42.123047 L 41.029297 42.123047 L 41.113281 42.123047 L 41.195312 42.123047 L 41.279297 42.123047 L 41.361328 42.123047 L 41.445312 42.123047 L 41.527344 42.123047 L 41.609375 42.123047 L 41.685547 42.123047 L 41.767578 42.123047 L 41.851562 42.123047 L 41.933594 42.123047 L 42.017578 42.123047 L 42.099609 42.123047 L 42.183594 42.123047 L 42.183594 42.039062 L 42.183594 41.964844 L 42.183594 41.882812 L 42.183594 41.798828 L 42.183594 41.716797 L 42.183594 41.640625 L 42.183594 41.558594 L 42.183594 41.474609 L 42.183594 41.400391 L 42.183594 41.316406 L 42.183594 41.234375 L 42.183594 41.158203 L 42.183594 41.076172 L 42.183594 40.992188 L 42.183594 40.910156 L 42.183594 40.835938 L 42.183594 40.751953 L 42.099609 40.751953 L 42.017578 40.751953 L 41.933594 40.751953 L 41.851562 40.751953 L 41.767578 40.751953 L 41.685547 40.751953 L 41.601562 40.751953 L 41.519531 40.751953 L 41.435547 40.751953 L 41.353516 40.751953 L 41.269531 40.751953 L 41.1875 40.751953 L 41.103516 40.751953 L 41.021484 40.751953 L 40.945312 40.751953 L 40.863281 40.751953 L 40.78125 40.751953 L 40.697266 40.751953 L 40.615234 40.751953 L 40.53125 40.751953 L 40.449219 40.751953 L 40.367188 40.751953 L 40.283203 40.751953 L 40.201172 40.751953 L 40.119141 40.751953 L 40.037109 40.751953 L 39.953125 40.751953 L 39.871094 40.751953 L 39.787109 40.751953 L 39.705078 40.751953 L 39.623047 40.751953 L 39.539062 40.751953 L 39.457031 40.751953 L 39.373047 40.751953 L 39.291016 40.751953 L 39.207031 40.751953 L 39.125 40.751953 L 39.042969 40.751953 L 38.960938 40.751953 L 38.876953 40.751953 L 38.794922 40.751953 L 38.710938 40.751953 L 38.628906 40.751953 L 38.552734 40.751953 L 38.470703 40.751953 L 38.388672 40.751953 L 38.304688 40.751953 L 38.222656 40.751953 L 38.138672 40.751953 L 38.056641 40.751953 L 37.972656 40.751953 L 37.890625 40.751953 L 37.806641 40.751953 L 37.724609 40.751953 L 37.642578 40.751953 L 37.558594 40.751953 L 37.476562 40.751953 L 37.392578 40.751953 z M 25.841797 42.615234 L 25.875 42.689453 L 25.900391 42.765625 L 25.933594 42.847656 L 25.966797 42.923828 L 25.990234 42.998047 L 26.023438 43.072266 L 26.056641 43.15625 L 26.082031 43.230469 L 26.115234 43.306641 L 26.148438 43.380859 L 26.171875 43.455078 L 26.205078 43.539062 L 26.230469 43.613281 L 26.263672 43.689453 L 26.296875 43.763672 L 26.320312 43.839844 L 26.353516 43.921875 L 26.386719 43.996094 L 26.412109 44.072266 L 26.445312 44.146484 L 26.478516 44.230469 L 26.503906 44.304688 L 26.542969 44.380859 L 26.458984 44.380859 L 26.376953 44.380859 L 26.292969 44.380859 L 26.210938 44.380859 L 26.128906 44.380859 L 26.044922 44.380859 L 25.962891 44.380859 L 25.878906 44.380859 L 25.804688 44.380859 L 25.722656 44.380859 L 25.638672 44.380859 L 25.556641 44.380859 L 25.472656 44.380859 L 25.390625 44.380859 L 25.306641 44.380859 L 25.224609 44.380859 L 25.142578 44.380859 L 25.175781 44.304688 L 25.199219 44.230469 L 25.232422 44.146484 L 25.265625 44.072266 L 25.289062 43.996094 L 25.322266 43.921875 L 25.355469 43.839844 L 25.388672 43.763672 L 25.414062 43.689453 L 25.447266 43.613281 L 25.480469 43.539062 L 25.503906 43.455078 L 25.537109 43.380859 L 25.570312 43.306641 L 25.595703 43.230469 L 25.628906 43.15625 L 25.660156 43.072266 L 25.693359 42.998047 L 25.71875 42.923828 L 25.751953 42.847656 L 25.783203 42.765625 L 25.808594 42.689453 L 25.841797 42.615234 z M 23.460938 54.115234 L 31.820312 56.990234 L 40.539062 54.115234 L 23.460938 54.115234 z"/></svg>